<svg xmlns="http://www.w3.org/2000/svg" viewBox="0 0 202.92 327.21"><defs><style>.cls-1{fill:#448364;}.cls-2{fill:#214031;}.cls-3{fill:#32624a;}.cls-4{fill:#f4d791;}.cls-5{fill:#efc765;}</style></defs><title>Asset 3</title><g id="Layer_2" data-name="Layer 2"><g id="flowers"><path class="cls-1" d="M89.44,228.3c-8.65-7.61-7.8-22-9.31-30.87C78.3,186.64,77,175.9,75.77,165.12c-.94-8.34-3.58-16.52-4.78-24.81-1.66-11.42,3.54-17.08,6.8-27.24,3.13-9.71-.87-19.59-1.7-29.6-.82-9.84.46-18.41-3-28.24C69.32,44.33,70,35.77,69.19,25c-.66-8.4-9.79-16.94-8.44-25C64,10.94,73.84,17.6,74.35,29.34,74.9,42,80.91,51.93,84.55,64.13c2.9,9.71.23,19.51,5.38,29.11,2.27,4.22,7,7.92,8.86,12.24,3.14,7.21-.5,12-.91,18.9-.66,11.11,8.1,23.05,9.86,34.55,2,13.23,6.91,26,8.08,39.33.66,7.49,8.48,23,5.57,29.83C117.31,237.59,98.27,236.05,89.44,228.3Z"/><path class="cls-2" d="M167.82,12.39c-17,17.27-18.35,41.55-26.26,63.54-1.71,4.84-1.17,9.84-2.46,15.17-2.67,12-6.15,22.57-8.37,34.59-1.32,5.78-7,9.88-10.15,15.52-5.78,11.31-11.18,23.56-13,36.51-2.48,15.62-3.24,32.26-11.88,45.63-2.06,3.16-5,6-7.39,9a7.77,7.77,0,0,0,1.51.4c4.17.69,8.74-.17,12.95,0,6.24.25,12.37.92,17.35-3.72,6.57-6.12,8.41-17.81,10.91-26,2.93-9.62.2-19.73,3.44-29.1,1.43-4.14,3.91-7.63,5.8-11.51,2.24-4.57,2.26-9.67,2.8-14.67,1.21-11.13.31-21.82,2.62-32.83,2.27-10.83-2.81-20.32,1.41-31,3.83-9.73,5.75-19.38,7.91-29.55,1.81-8.49,2.88-17.46,6-25.57a42.52,42.52,0,0,1,6.58-11.62c2.9-3.55,5.78-5.35,7.45-9.36C172.88,9.55,169.8,10.34,167.82,12.39Z"/><path class="cls-1" d="M148.53,23.41c-7.21,8.39-10.59,20.53-14.12,30.83-4.16,12.17-8.51,23.68-11.31,36.24-2.88,13-9.31,24.59-13.58,37-2.17,6.32-2.44,13.28-4.15,19.77a131.44,131.44,0,0,1-6.1,17.79c-5.38,12.71-10,25.16-12.9,38.71-1.46,6.86-7.22,25.18,1.91,28.53,2.39-3,5.33-5.81,7.39-9,8.64-13.37,9.4-30,11.88-45.63,1.85-12.95,7.25-25.2,13-36.51,3.12-5.64,8.83-9.74,10.15-15.52,2.22-12,5.7-22.6,8.37-34.59,1.29-5.33.75-10.33,2.46-15.17,7.91-22,9.21-46.27,26.26-63.54,2-2.05,5.06-2.84,7.23-4.67.14-.35.28-.71.41-1.09C166,11.16,155.54,15.24,148.53,23.41Z"/><path class="cls-1" d="M60.62,239.54c-5.94,1.61-10.09-1.53-11.93-6.28-1.48-3.84-1.18-9.19-1.4-14.18-.23-5.38-1.55-10.55-1.81-14-.41-5.19-.34-10-1.63-14.65a137.73,137.73,0,0,0-4.86-14c-1.8-4.53-3.58-9.13-5.41-13.88s-2.33-9.81-4.38-14.23-6.13-8-8.27-12.43-2.89-9.43-4.87-14c-2.67-6.18-6.18-11.78-8.87-17.95A72.81,72.81,0,0,1,3.58,93.42,46.34,46.34,0,0,0,0,83.83c2.92,2.22,4.42,4.46,6.44,7.7s3.25,6.91,5.49,9.79c4.36,5.58,8.46,10.88,12.61,16.74,3.23,4.58,6.11,9.31,9.27,13.85s7.59,8.24,10.57,13,4.39,10.14,7,15.14c2,3.8,5.93,6.69,7.73,10.66s1.83,8.6,3.38,12.67,2.37,8.25,3.65,12.4,4.76,7.66,5.75,11.89c.56,2.41-.14,7.09.74,11.37s1,8,.21,10.51C71.35,234.17,64.52,238.24,60.62,239.54Z"/><path class="cls-3" d="M83.57,236.11c2.4-7.5,2.5-15.59,1.8-23.48-1.76-19.69-7.75-38.95-13.76-58-6.88-23.85-13.87-48.21-24.07-69.89C37.07,58.78,23.25,37,8.53,24c7,9.7,17.64,32.65,21.53,47.84,12.05,39,15.91,77.6,31.39,114.94,8.2,17.2,4.27,33.69,2.78,47.06-.5,4.23,3.15,16.53,9,16.42C78.49,250.18,81.93,239.76,83.57,236.11Z"/><path class="cls-3" d="M122.51,225.54c1-4.51.2-8.5-.41-13.14-.33-1.46-.66-2.9-1-4.35a251.27,251.27,0,0,1-4.56-26.25c-.29-1.23-.56-2.45-.82-3.68q-1.59-7.37-2.77-14.81c-.26-1.65-.51-3.31-.74-5s-.45-3.31-.65-5-.39-3.32-.56-5q-.68-6.74-1-13.52c-.08-1.5-.15-3-.2-4.52-.25-7.8,0-15.57.34-23.33.07-1.55.16-3.1.24-4.65,2.32-15.93,3.61-32.31-2.59-48-.49-1.27-1-2.52-1.66-3.75a40.83,40.83,0,0,0-2-3.63l-.48,3.67-.48,3.67c1,17.06,1.09,33.32-6.48,49.09-.24,1.47-.46,3-.68,4.44a208.1,208.1,0,0,0-2.67,27q0,2.22,0,4.41a153.48,153.48,0,0,1-7.06,43.27l-.69,5.22-2,15.63c-.18,1.31-.35,2.63-.51,3.95s-.31,2.65-.43,4c0,1.63-.26,3.91.34,5.66A32.29,32.29,0,0,0,86.71,224c.72,1.1,1.43,2.18,2.08,3.29,3.62,5.08,2.16,14.25,8.18,16,9.77,3.22,19.42-5.3,24.07-14.77A23.37,23.37,0,0,0,122.51,225.54Z"/><path class="cls-2" d="M169.21,161.46c-3.07-26.14,28.87-58.62,12-84.53-10.56-16.23-6.38-3.3-6.58,2-.29,7.49-2.47,14.31-5,21.52-3.84,11-12.6,17-18.39,26.7-12.21,20.35-18.55,43.42-30.46,64.14-9.21,16-11.61,21.44-2.85,37.8C128.93,249.51,172,185,169.21,161.46Z"/><path class="cls-2" d="M73.5,147.86c-2-15.31-5.76-32.06-4.71-47.46a91.91,91.91,0,0,0-.67-18.9c-1-6.73-3.45-13.23-5.19-19.74,6,11.95,10.4,21.72,11.39,35.48,1,14.13,6.93,27.68,10.56,41.38,3.89,14.7,7.57,29.44,11.46,44.14,3.13,11.84,8.82,27.08,5.19,39.42-3,10.3-21.33,23.21-26.61,7.43-3.64-10.87.08-25.4,1-36.5C77.23,178.06,75.47,162.78,73.5,147.86Z"/><path class="cls-1" d="M109,236.63c10.47-.78,12.15-7,10.55-16.12a112.94,112.94,0,0,1-1.25-15.12c-.23-4.78-1.06-9.84.14-15.26,1.45-6.61,4.88-12.45,7.73-18.32s5.95-11.65,8.27-17.89a143.68,143.68,0,0,1,6-13.51c2.17-4.43,5.58-8.17,7.93-12.51s3.33-8.73,5.57-13.2c-4.55,2.63-8.56,4.75-12,8A76.74,76.74,0,0,0,132,134.05a140.07,140.07,0,0,0-7.72,12.83c-3.56,6.35-8.26,7.29-12.89,12.55-5.05,5.74-6.59,13.59-8.93,20.7-1.51,4.6-3.63,8.93-5.16,13.44S94,202.65,92.83,207.3a96.4,96.4,0,0,0-3,14.2c-.8,7.64,1.46,11.61,4.64,13.64C97.48,237,102.15,236.88,109,236.63Z"/><path class="cls-1" d="M170,153.38l-2.12,3.26c-.5,1.3-1,2.56-1.65,3.8s-1.23,2.45-1.9,3.65c-1.22,2.36-2.66,4.7-4.09,7-.7,1.17-1.4,2.34-2.06,3.52-5.94,14.41-10,30.36-21.27,40.94-.61.75-1.24,1.5-1.89,2.22a56.08,56.08,0,0,1-6.23,6.1.78.78,0,0,0-.41.23c-.16.73-.31,1.46-.45,2.18l.32,0-.32,0c-1.55,8.66-1,16.93,7.55,14a28.75,28.75,0,0,0,10.79-7.05c.83-.8,1.63-1.64,2.42-2.53,4.77-6,7.67-13.42,10.18-21,.52-1.51,1-3,1.52-4.54,1.26-3,1.39-6,3.1-9,.55-1.47,1.12-2.92,1.73-4.35s1.26-2.81,2-4.17c.35-1.25.7-2.52,1.06-3.78s.72-2.52,1.1-3.76.64-2.56,1-3.83a78.36,78.36,0,0,1,7.88-18.54l1.32-3.71,1.34-3.69,1.59-4.2c1.48-6.18,4.47-11.83,8-17.25.72-1.08,1.48-2.15,2.24-3.21s1.57-2.1,2.36-3.14,1.62-2.08,2.43-3.12c1.64-2.06,3.28-4.11,4.86-6.18-1.18.79-2.35,1.58-3.51,2.38s-2.3,1.63-3.42,2.46a94.79,94.79,0,0,0-17.06,17.15c-.7,1.11-1.36,2.25-2,3.42s-1.15,2.37-1.64,3.6-1.15,2.41-1.7,3.63Q171.46,149.57,170,153.38Z"/><path class="cls-3" d="M150.61,194.9c3.2-7.19,4.19-14.62,8.66-21.11,0,0,0,0,0,0l1.64-3c1.66-3,3.29-6,4.86-8.94.59-1.24,1.14-2.5,1.63-3.8l0-.05,2.06-3.24,0-.06c1.46-3.83,3-7.56,4.74-11.19.58-1.21,1.18-2.41,1.81-3.59a15.21,15.21,0,0,1,1.86-3.32c5.61-6,21.2-20,22-20.65l2.82-2.16c.31-.24-.1-.62-.48-.44-1.43.65-2.89,1.28-4.38,1.91h0c-12.94,4.9-24.08,12.09-28.38,23.22a22,22,0,0,1-2.18,4.54c-2.67,4.13-7.34,6.91-10.34,10.86-2.81,3.84-4,8.5-5.24,13.1a13.25,13.25,0,0,1-.77,2.76c-8.23,15.86-11,30.27-18.89,44.1a.05.05,0,0,0,0,0c-.45,1.31-1.09,3.14-1.77,5.25s-.64,1.54-2,5c.13-.11,4.73-2.2,6.6-4.38.63-.73,1.26-1.48,1.86-2.24a100.26,100.26,0,0,0,12.21-19C149.59,197.33,150.12,196.13,150.61,194.9Z"/><path class="cls-4" d="M97.44,327.12c50.3,0,50.3-37.45,50.3-83.63H47.14C47.14,289.67,47.14,327.12,97.44,327.12Z"/><path class="cls-5" d="M147.74,249.9H93.37a8.23,8.23,0,0,0,2.79,1.36c13,1.8,26.11,5,33.31,17.15a26.49,26.49,0,0,1,3.43,9.8,27.39,27.39,0,0,1,.24,4.86,49.16,49.16,0,0,1-2.13,10.1,32.18,32.18,0,0,1-6.95,12.58c-1,1.18-2.1,2.29-3.23,3.37a25.43,25.43,0,0,1-3.38,3c-5.53,5.2-15.44,6.17-17.24,15,5.85.49,11.71-1,17.55-2.3,1.24-.39,2.47-.83,3.67-1.33a43.52,43.52,0,0,0,10.28-5.94,31.48,31.48,0,0,0,3.42-3.23,32,32,0,0,0,3-3.84,37.88,37.88,0,0,0,2.21-3.69C147.74,292.68,147.74,272.42,147.74,249.9Z"/><path class="cls-4" d="M147.37,249.39H47.51a6,6,0,0,1-6-6v-8a6,6,0,0,1,6-6h99.86a6.07,6.07,0,0,1,6,6v8A6,6,0,0,1,147.37,249.39Z"/></g></g></svg>