<svg xmlns="http://www.w3.org/2000/svg" xmlns:xlink="http://www.w3.org/1999/xlink" viewBox="0 0 165.79 391.18"><defs><style>.cls-1{fill:none;}.cls-2{fill:#e8496b;}.cls-3{fill:#b12d5d;}.cls-4{fill:#383435;}.cls-5{fill:#4058b3;}.cls-6{fill:#2d3b86;}.cls-7{fill:#febd32;}.cls-8{fill:#f98437;}.cls-9{fill:#f5efea;}.cls-10{fill:#d8ccb6;}.cls-11{clip-path:url(#clip-path);}.cls-12{fill:#989085;}</style><clipPath id="clip-path"><path class="cls-1" d="M127.69,276.27a4.83,4.83,0,0,0-4.68-3.59H42.64A4.89,4.89,0,0,0,38,276.27c-2.65,10-4.13,34.63-4.13,46.31,0,45.07,21.93,68.6,49,68.6A42.32,42.32,0,0,0,115,376.6c10.33-11.51,16.87-29.69,16.87-54C131.83,310.9,130.34,286.31,127.69,276.27Z"/></clipPath></defs><title>ilu 1</title><g id="Layer_2" data-name="Layer 2"><g id="pot"><g id="ilu_1" data-name="ilu 1"><path class="cls-2" d="M84.42,0c4.67,3,7.08,7.57,6.18,12-.78,3.81-5.11,7.16-6.21,7.94-1.1-.79-5.13-4.16-5.87-8C77.66,7.53,79.73,2.94,84.42,0Z"/><path class="cls-3" d="M84.42,0l.16.1,0,19.7-.15.11c-1.1-.79-5.13-4.16-5.87-8C77.66,7.53,79.73,2.94,84.42,0Z"/><path class="cls-2" d="M106.82,18.13c-7.28-.85-14.33,1.4-18.26,5.93-3.4,3.92-3.19,10.06-3.07,11.56,1.82.12,9,.14,13.71-2.65C104.68,29.74,107.78,24.17,106.82,18.13Z"/><path class="cls-3" d="M106.82,18.13l-.25,0L85.48,35.41c0,.08,0,.15,0,.21,1.82.12,9,.14,13.71-2.65C104.68,29.74,107.78,24.17,106.82,18.13Z"/><path class="cls-2" d="M106.82,34.14c-7.28-.84-14.33,1.4-18.26,5.93-3.4,3.92-3.19,10.06-3.07,11.57,1.82.11,9,.13,13.71-2.66C104.68,45.75,107.78,40.19,106.82,34.14Z"/><path class="cls-3" d="M106.82,34.14l-.25,0L85.48,51.42c0,.08,0,.15,0,.22,1.82.11,9,.13,13.71-2.66C104.68,45.75,107.78,40.19,106.82,34.14Z"/><path class="cls-2" d="M107.93,51.17c-7.73-.9-15.23,1.49-19.4,6.31-3.62,4.16-3.39,10.68-3.26,12.28,1.93.12,9.52.15,14.56-2.82C105.66,63.51,109,57.6,107.93,51.17Z"/><path class="cls-3" d="M107.93,51.17l-.26,0L85.26,69.54c0,.08,0,.16,0,.22,1.93.12,9.52.15,14.56-2.82C105.66,63.51,109,57.6,107.93,51.17Z"/><path class="cls-2" d="M109.28,69.58c-8.13-1-16,1.56-20.4,6.62-3.8,4.38-3.56,11.24-3.42,12.92,2,.12,10,.15,15.3-3C106.89,82.54,110.35,76.33,109.28,69.58Z"/><path class="cls-3" d="M109.28,69.58l-.28,0L85.44,88.88c0,.09,0,.17,0,.24,2,.12,10,.15,15.3-3C106.89,82.54,110.35,76.33,109.28,69.58Z"/><path class="cls-2" d="M110.45,87.55c-8.68-1-17.09,1.68-21.78,7.08-4,4.67-3.8,12-3.65,13.79,2.16.13,10.68.16,16.34-3.17C107.9,101.39,111.59,94.76,110.45,87.55Z"/><path class="cls-3" d="M110.45,87.55l-.29,0L85,108.16c0,.09,0,.18,0,.26,2.16.13,10.68.16,16.34-3.17C107.9,101.39,111.59,94.76,110.45,87.55Z"/><path class="cls-2" d="M110.45,107c-8.68-1-17.09,1.67-21.78,7.07-4,4.67-3.8,12-3.65,13.79,2.16.13,10.68.16,16.34-3.17C107.9,120.84,111.59,114.2,110.45,107Z"/><path class="cls-3" d="M110.45,107l-.29,0L85,127.6c0,.1,0,.18,0,.26,2.16.13,10.68.16,16.34-3.17C107.9,120.84,111.59,114.2,110.45,107Z"/><path class="cls-2" d="M110.45,126.44c-8.68-1-17.09,1.67-21.78,7.07-4,4.67-3.8,12-3.65,13.79,2.16.14,10.68.16,16.34-3.17C107.9,140.28,111.59,133.65,110.45,126.44Z"/><path class="cls-3" d="M110.45,126.44l-.29,0L85,147.05c0,.09,0,.18,0,.25,2.16.14,10.68.16,16.34-3.17C107.9,140.28,111.59,133.65,110.45,126.44Z"/><path class="cls-2" d="M112.65,146c-9.25-1.08-18.24,1.78-23.24,7.55-4.33,5-4,12.8-3.9,14.72,2.31.14,11.41.17,17.44-3.38C109.93,160.73,113.88,153.65,112.65,146Z"/><path class="cls-3" d="M112.65,146l-.31,0L85.49,168a2.65,2.65,0,0,1,0,.27c2.31.14,11.41.17,17.44-3.38C109.93,160.73,113.88,153.65,112.65,146Z"/><path class="cls-2" d="M116.39,166.19c-10.46-1.22-20.61,2-26.27,8.53-4.89,5.63-4.58,14.46-4.4,16.63,2.61.16,12.89.2,19.71-3.82C113.32,182.88,117.77,174.88,116.39,166.19Z"/><path class="cls-3" d="M116.39,166.19l-.35,0L85.7,191a2.69,2.69,0,0,0,0,.31c2.61.16,12.89.2,19.71-3.82C113.32,182.88,117.77,174.88,116.39,166.19Z"/><path class="cls-2" d="M116.39,189.64c-10.46-1.22-20.61,2-26.27,8.53-4.89,5.63-4.58,14.47-4.4,16.63,2.61.16,12.89.2,19.71-3.82C113.32,206.33,117.77,198.33,116.39,189.64Z"/><path class="cls-3" d="M116.39,189.64l-.35,0L85.7,214.5a2.66,2.66,0,0,0,0,.3c2.61.16,12.89.2,19.71-3.82C113.32,206.33,117.77,198.33,116.39,189.64Z"/><path class="cls-2" d="M62.19,18.2c7.27-.84,14.33,1.41,18.26,5.94,3.4,3.91,3.19,10,3.06,11.56-1.81.11-9,.14-13.7-2.66C64.33,29.81,61.23,24.25,62.19,18.2Z"/><path class="cls-3" d="M62.19,18.2l.24,0,21.1,17.31c0,.07,0,.15,0,.21-1.81.11-9,.14-13.7-2.66C64.33,29.81,61.23,24.25,62.19,18.2Z"/><path class="cls-2" d="M62.19,34.14c7.27-.84,14.33,1.4,18.26,5.93,3.4,3.92,3.19,10.06,3.06,11.57-1.81.11-9,.13-13.7-2.66C64.33,45.75,61.23,40.19,62.19,34.14Z"/><path class="cls-3" d="M62.19,34.14l.24,0,21.1,17.3c0,.08,0,.15,0,.22-1.81.11-9,.13-13.7-2.66C64.33,45.75,61.23,40.19,62.19,34.14Z"/><path class="cls-2" d="M60.59,51.17c7.73-.9,15.23,1.49,19.41,6.31,3.61,4.16,3.38,10.68,3.25,12.28-1.93.12-9.52.15-14.56-2.82C62.86,63.51,59.57,57.6,60.59,51.17Z"/><path class="cls-3" d="M60.61,51.17l.26,0L83.29,69.54c0,.08,0,.16,0,.22-1.92.12-9.52.15-14.56-2.82C62.88,63.51,59.59,57.6,60.61,51.17Z"/><path class="cls-2" d="M59.8,69.66c8.12-.94,16,1.57,20.4,6.63C84,80.66,83.75,87.52,83.62,89.2c-2,.13-10,.15-15.31-3C62.19,82.62,58.73,76.41,59.8,69.66Z"/><path class="cls-3" d="M59.8,69.66l.27,0L83.63,89c0,.09,0,.17,0,.24-2,.13-10,.15-15.31-3C62.19,82.62,58.73,76.41,59.8,69.66Z"/><path class="cls-2" d="M58.07,87.55c8.68-1,17.09,1.68,21.78,7.08,4.06,4.67,3.8,12,3.65,13.79-2.16.13-10.68.16-16.34-3.17C60.62,101.39,56.93,94.76,58.07,87.55Z"/><path class="cls-3" d="M58.07,87.55l.3,0,25.15,20.64a2.11,2.11,0,0,1,0,.26c-2.16.13-10.68.16-16.34-3.17C60.62,101.39,56.93,94.76,58.07,87.55Z"/><path class="cls-2" d="M58.07,107c8.68-1,17.09,1.67,21.78,7.07,4.06,4.67,3.8,12,3.65,13.79-2.16.13-10.68.16-16.34-3.17C60.62,120.84,56.93,114.2,58.07,107Z"/><path class="cls-3" d="M58.07,107l.3,0L83.52,127.6a2,2,0,0,1,0,.26c-2.16.13-10.68.16-16.34-3.17C60.62,120.84,56.93,114.2,58.07,107Z"/><path class="cls-2" d="M58.07,126.44c8.68-1,17.09,1.67,21.78,7.07,4.06,4.67,3.8,12,3.65,13.79-2.16.14-10.68.16-16.34-3.17C60.62,140.28,56.93,133.65,58.07,126.44Z"/><path class="cls-3" d="M58.07,126.44l.3,0,25.15,20.64a1.81,1.81,0,0,1,0,.25c-2.16.14-10.68.16-16.34-3.17C60.62,140.28,56.93,133.65,58.07,126.44Z"/><path class="cls-2" d="M55.87,146c9.26-1.08,18.24,1.78,23.24,7.55,4.33,5,4,12.8,3.9,14.72-2.31.14-11.4.17-17.44-3.38C58.59,160.73,54.65,153.65,55.87,146Z"/><path class="cls-3" d="M55.87,146l.31,0L83,168c0,.09,0,.19,0,.27-2.31.14-11.4.17-17.44-3.38C58.59,160.73,54.65,153.65,55.87,146Z"/><path class="cls-2" d="M52.13,166.19c10.46-1.22,20.61,2,26.27,8.53,4.89,5.63,4.58,14.46,4.4,16.63-2.6.16-12.88.2-19.7-3.82C55.21,182.88,50.75,174.88,52.13,166.19Z"/><path class="cls-3" d="M52.13,166.19l.35,0L82.83,191c0,.12,0,.22,0,.31-2.6.16-12.88.2-19.7-3.82C55.21,182.88,50.75,174.88,52.13,166.19Z"/><path class="cls-2" d="M52.13,189.64c10.46-1.22,20.61,2,26.27,8.53,4.89,5.63,4.58,14.47,4.4,16.63-2.6.16-12.88.2-19.7-3.82C55.21,206.33,50.75,198.33,52.13,189.64Z"/><path class="cls-3" d="M52.13,189.64l.35,0,30.35,24.9q0,.17,0,.3c-2.6.16-12.88.2-19.7-3.82C55.21,206.33,50.75,198.33,52.13,189.64Z"/><path class="cls-4" d="M84.56,387.47a.83.83,0,0,1-.89-.73V19.23a.91.91,0,0,1,1.78,0V386.74A.83.83,0,0,1,84.56,387.47Z"/><path class="cls-5" d="M153.28,75.5c2.71,2.73,3.72,6.41,2.55,9.56-1,2.72-4.32,4.68-5.16,5.14-.62-.72-2.86-3.68-2.85-6.58A9,9,0,0,1,153.28,75.5Z"/><path class="cls-6" d="M153.28,75.5l.09.09-2.58,14.54-.12.07c-.62-.72-2.86-3.68-2.85-6.58A9,9,0,0,1,153.28,75.5Z"/><path class="cls-5" d="M165.79,91.5c-4.71-1.48-9.69-.64-12.89,2.24-2.76,2.5-3.42,7.06-3.53,8.18,1.19.3,5.93,1.15,9.44-.36A11.24,11.24,0,0,0,165.79,91.5Z"/><path class="cls-6" d="M165.79,91.5l-.16,0-16.24,10.32a.89.89,0,0,0,0,.15c1.19.3,5.93,1.15,9.44-.36A11.24,11.24,0,0,0,165.79,91.5Z"/><path class="cls-5" d="M163.71,103.32c-4.71-1.47-9.69-.64-12.89,2.25-2.76,2.49-3.41,7.05-3.53,8.18,1.19.29,5.93,1.14,9.44-.36A11.27,11.27,0,0,0,163.71,103.32Z"/><path class="cls-6" d="M163.71,103.32l-.15,0-16.25,10.32c0,.06,0,.11,0,.16,1.19.29,5.93,1.14,9.44-.36A11.27,11.27,0,0,0,163.71,103.32Z"/><path class="cls-5" d="M162.24,116c-5-1.56-10.3-.67-13.7,2.39-2.93,2.66-3.63,7.5-3.75,8.7,1.26.31,6.3,1.21,10-.39A12,12,0,0,0,162.24,116Z"/><path class="cls-6" d="M162.24,116l-.17,0-17.26,11c0,.06,0,.12,0,.17,1.26.31,6.3,1.21,10-.39A12,12,0,0,0,162.24,116Z"/><path class="cls-5" d="M160.75,129.77c-5.27-1.65-10.83-.71-14.4,2.51-3.09,2.79-3.82,7.88-3.95,9.14,1.33.33,6.62,1.28,10.54-.41A12.59,12.59,0,0,0,160.75,129.77Z"/><path class="cls-6" d="M160.75,129.77l-.18-.05-18.15,11.52c0,.07,0,.13,0,.18,1.33.33,6.62,1.28,10.54-.41A12.59,12.59,0,0,0,160.75,129.77Z"/><path class="cls-5" d="M159.19,143.18c-5.63-1.76-11.56-.76-15.37,2.68-3.3,3-4.08,8.42-4.22,9.76,1.42.35,7.07,1.36,11.26-.43A13.46,13.46,0,0,0,159.19,143.18Z"/><path class="cls-6" d="M159.19,143.18l-.19-.05-19.38,12.3a1.11,1.11,0,0,1,0,.19c1.42.35,7.07,1.36,11.26-.43A13.46,13.46,0,0,0,159.19,143.18Z"/><path class="cls-5" d="M156.66,157.54c-5.62-1.76-11.55-.76-15.37,2.68-3.29,3-4.07,8.41-4.21,9.75,1.42.35,7.07,1.37,11.25-.43A13.42,13.42,0,0,0,156.66,157.54Z"/><path class="cls-6" d="M156.66,157.54l-.19-.06-19.37,12.3a1.54,1.54,0,0,0,0,.19c1.42.35,7.07,1.37,11.25-.43A13.42,13.42,0,0,0,156.66,157.54Z"/><path class="cls-5" d="M154.05,171.76c-5.56-1.66-11.46-.62-15.28,2.81-3.31,3-4.14,8.32-4.29,9.65,1.4.33,7,1.26,11.17-.56A13.61,13.61,0,0,0,154.05,171.76Z"/><path class="cls-6" d="M154.05,171.76l-.19,0L134.5,184a1.37,1.37,0,0,0,0,.19c1.4.33,7,1.26,11.17-.56A13.61,13.61,0,0,0,154.05,171.76Z"/><path class="cls-5" d="M153.07,186.57c-6-1.88-12.34-.82-16.41,2.86-3.52,3.17-4.35,9-4.49,10.41,1.51.37,7.54,1.46,12-.46A14.37,14.37,0,0,0,153.07,186.57Z"/><path class="cls-6" d="M153.07,186.57l-.2-.06-20.68,13.13a1.5,1.5,0,0,0,0,.2c1.51.37,7.54,1.46,12-.46A14.37,14.37,0,0,0,153.07,186.57Z"/><path class="cls-5" d="M152.92,201.94c-6.78-2.12-13.94-.92-18.54,3.23-4,3.59-4.91,10.15-5.08,11.77,1.71.42,8.53,1.65,13.58-.53A16.19,16.19,0,0,0,152.92,201.94Z"/><path class="cls-6" d="M152.92,201.94l-.22-.07-23.37,14.84,0,.23c1.71.42,8.53,1.65,13.58-.53A16.19,16.19,0,0,0,152.92,201.94Z"/><path class="cls-5" d="M149.88,219.25c-6.79-2.12-13.94-.92-18.54,3.24-4,3.58-4.92,10.14-5.08,11.76,1.7.43,8.52,1.65,13.57-.52A16.21,16.21,0,0,0,149.88,219.25Z"/><path class="cls-6" d="M149.88,219.25l-.23-.07L126.28,234c0,.09,0,.17,0,.23,1.7.43,8.52,1.65,13.57-.52A16.21,16.21,0,0,0,149.88,219.25Z"/><path class="cls-5" d="M136.17,86.34c4.93.23,9.32,2.71,11.35,6.51,1.74,3.29.8,7.8.53,8.9-1.22-.13-6-1-8.75-3.56A11.27,11.27,0,0,1,136.17,86.34Z"/><path class="cls-6" d="M136.17,86.34h.16l11.75,15.24,0,.16c-1.22-.13-6-1-8.75-3.56A11.27,11.27,0,0,1,136.17,86.34Z"/><path class="cls-5" d="M134.1,98.11c4.93.22,9.32,2.71,11.35,6.51,1.74,3.29.8,7.8.53,8.9-1.22-.13-6-1-8.75-3.56A11.27,11.27,0,0,1,134.1,98.11Z"/><path class="cls-6" d="M134.1,98.11h.16L146,113.36l0,.16c-1.22-.13-6-1-8.75-3.56A11.27,11.27,0,0,1,134.1,98.11Z"/><path class="cls-5" d="M130.82,110.5c5.25.24,9.92,2.88,12.06,6.92,1.86,3.49.86,8.28.57,9.45-1.3-.14-6.34-1-9.3-3.78A12,12,0,0,1,130.82,110.5Z"/><path class="cls-6" d="M130.84,110.5H131l12.49,16.2c0,.06,0,.11,0,.16-1.29-.13-6.34-1-9.29-3.78A12,12,0,0,1,130.84,110.5Z"/><path class="cls-5" d="M127.9,124.06c5.51.25,10.42,3,12.67,7.27,2,3.67.91,8.71.6,9.94-1.36-.15-6.66-1.06-9.77-4A12.58,12.58,0,0,1,127.9,124.06Z"/><path class="cls-6" d="M127.9,124.06h.18l13.13,17c0,.07,0,.13,0,.18-1.36-.15-6.66-1.06-9.77-4A12.58,12.58,0,0,1,127.9,124.06Z"/><path class="cls-5" d="M124.43,137.07c5.89.27,11.12,3.23,13.53,7.76,2.09,3.93,1,9.3.64,10.61-1.45-.15-7.11-1.13-10.43-4.25A13.4,13.4,0,0,1,124.43,137.07Z"/><path class="cls-6" d="M124.43,137.07h.2l14,18.18c0,.06,0,.13,0,.18-1.45-.15-7.11-1.13-10.43-4.25A13.4,13.4,0,0,1,124.43,137.07Z"/><path class="cls-5" d="M121.91,151.43c5.88.26,11.12,3.22,13.53,7.76,2.08,3.92,1,9.3.63,10.61-1.45-.16-7.11-1.13-10.43-4.25A13.43,13.43,0,0,1,121.91,151.43Z"/><path class="cls-6" d="M121.91,151.43h.19l14,18.17c0,.07,0,.13-.05.19-1.45-.16-7.11-1.13-10.43-4.25A13.43,13.43,0,0,1,121.91,151.43Z"/><path class="cls-5" d="M119.38,165.78c5.89.27,11.13,3.23,13.54,7.77,2.08,3.92,1,9.29.63,10.6-1.45-.15-7.11-1.12-10.43-4.24A13.44,13.44,0,0,1,119.38,165.78Z"/><path class="cls-6" d="M119.38,165.78h.2l14,18.18c0,.06,0,.13,0,.18-1.45-.15-7.11-1.12-10.43-4.24A13.44,13.44,0,0,1,119.38,165.78Z"/><path class="cls-5" d="M115.38,179.94c6.29.28,11.88,3.44,14.45,8.29,2.22,4.18,1,9.92.67,11.32-1.54-.17-7.59-1.21-11.13-4.54A14.33,14.33,0,0,1,115.38,179.94Z"/><path class="cls-6" d="M115.38,179.94h.21l15,19.4a1.17,1.17,0,0,1-.05.2c-1.54-.17-7.59-1.21-11.13-4.54A14.33,14.33,0,0,1,115.38,179.94Z"/><path class="cls-5" d="M110.28,194.44c7.1.32,13.41,3.89,16.32,9.36,2.52,4.73,1.16,11.22.76,12.8-1.75-.19-8.57-1.36-12.58-5.13A16.2,16.2,0,0,1,110.28,194.44Z"/><path class="cls-6" d="M110.28,194.44h.23l16.91,21.92-.06.23c-1.75-.19-8.57-1.36-12.58-5.13A16.2,16.2,0,0,1,110.28,194.44Z"/><path class="cls-5" d="M107.23,211.75c7.1.32,13.42,3.9,16.33,9.37,2.51,4.73,1.16,11.21.76,12.79-1.75-.18-8.58-1.36-12.58-5.12A16.19,16.19,0,0,1,107.23,211.75Z"/><path class="cls-6" d="M107.23,211.75l.24,0,16.9,21.92a1.19,1.19,0,0,1-.05.22c-1.75-.18-8.58-1.36-12.58-5.12A16.19,16.19,0,0,1,107.23,211.75Z"/><path class="cls-4" d="M102.93,362.38a.57.57,0,0,1-.49-.65L150.29,89.61a.58.58,0,0,1,.68-.45.58.58,0,0,1,.5.65L103.62,361.94A.58.58,0,0,1,102.93,362.38Z"/><path class="cls-7" d="M41.34,110.05a8,8,0,0,1,4.34,7.38c-.21,2.5-2.52,4.9-3.11,5.47-.68-.45-3.23-2.39-3.91-4.81A7.78,7.78,0,0,1,41.34,110.05Z"/><path class="cls-8" d="M41.34,110.05l.09.06,1.23,12.71-.09.08c-.68-.45-3.23-2.39-3.91-4.81A7.78,7.78,0,0,1,41.34,110.05Z"/><path class="cls-7" d="M55.47,120.48c-4.27-.13-8.22,1.72-10.22,4.86-1.72,2.72-1.21,6.67-1,7.64,1,0,5.2-.42,7.77-2.49A9.75,9.75,0,0,0,55.47,120.48Z"/><path class="cls-8" d="M55.47,120.48h-.14L44.18,132.84l0,.14c1,0,5.2-.42,7.77-2.49A9.75,9.75,0,0,0,55.47,120.48Z"/><path class="cls-7" d="M56.48,130.81c-4.27-.13-8.22,1.72-10.22,4.87-1.72,2.71-1.21,6.67-1,7.63,1.05,0,5.2-.42,7.77-2.49A9.75,9.75,0,0,0,56.48,130.81Z"/><path class="cls-8" d="M56.48,130.81h-.14L45.19,143.17l0,.14c1.05,0,5.2-.42,7.77-2.49A9.75,9.75,0,0,0,56.48,130.81Z"/><path class="cls-7" d="M58.2,141.74c-4.54-.14-8.74,1.82-10.86,5.17-1.83,2.89-1.28,7.08-1.11,8.11,1.13,0,5.53-.45,8.27-2.65A10.36,10.36,0,0,0,58.2,141.74Z"/><path class="cls-8" d="M58.2,141.74h-.15L46.21,154.87c0,.06,0,.11,0,.15,1.13,0,5.53-.45,8.27-2.65A10.36,10.36,0,0,0,58.2,141.74Z"/><path class="cls-7" d="M60.14,153.54c-4.77-.15-9.18,1.91-11.41,5.43-1.93,3-1.35,7.45-1.17,8.53,1.18,0,5.82-.47,8.69-2.79A10.86,10.86,0,0,0,60.14,153.54Z"/><path class="cls-8" d="M60.14,153.54H60L47.54,167.34c0,.06,0,.11,0,.16,1.18,0,5.82-.47,8.69-2.79A10.86,10.86,0,0,0,60.14,153.54Z"/><path class="cls-7" d="M62,165.07c-5.1-.16-9.81,2.05-12.19,5.8-2.06,3.24-1.44,7.95-1.25,9.1,1.27,0,6.21-.5,9.28-3A11.61,11.61,0,0,0,62,165.07Z"/><path class="cls-8" d="M62,165.07h-.18L48.5,179.81a1.15,1.15,0,0,1,0,.16c1.27,0,6.21-.5,9.28-3A11.61,11.61,0,0,0,62,165.07Z"/><path class="cls-7" d="M63.18,177.62c-5.09-.16-9.8,2-12.18,5.8-2.06,3.24-1.45,8-1.25,9.1,1.26,0,6.21-.5,9.28-3A11.62,11.62,0,0,0,63.18,177.62Z"/><path class="cls-8" d="M63.18,177.62H63L49.72,192.36l0,.16c1.26,0,6.21-.5,9.28-3A11.62,11.62,0,0,0,63.18,177.62Z"/><path class="cls-7" d="M64.41,190.16c-5.09-.16-9.81,2.05-12.19,5.8-2,3.24-1.44,7.95-1.24,9.11,1.26,0,6.2-.51,9.27-3A11.61,11.61,0,0,0,64.41,190.16Z"/><path class="cls-8" d="M64.41,190.16h-.17L51,204.9l0,.17c1.26,0,6.2-.51,9.27-3A11.61,11.61,0,0,0,64.41,190.16Z"/><path class="cls-7" d="M66.92,202.63c-5.44-.17-10.47,2.19-13,6.19-2.2,3.46-1.55,8.49-1.34,9.72,1.35,0,6.63-.54,9.9-3.17A12.42,12.42,0,0,0,66.92,202.63Z"/><path class="cls-8" d="M66.92,202.63h-.18L52.56,218.37a1.11,1.11,0,0,1,0,.17c1.35,0,6.63-.54,9.9-3.17A12.42,12.42,0,0,0,66.92,202.63Z"/><path class="cls-7" d="M70.36,215.47c-6.14-.19-11.82,2.47-14.69,7-2.48,3.91-1.75,9.59-1.51,11,1.52,0,7.49-.61,11.19-3.59A14,14,0,0,0,70.36,215.47Z"/><path class="cls-8" d="M70.36,215.47h-.2l-16,17.78,0,.2c1.52,0,7.49-.61,11.19-3.59A14,14,0,0,0,70.36,215.47Z"/><path class="cls-7" d="M71.84,230.6c-6.14-.19-11.82,2.47-14.69,7-2.48,3.91-1.75,9.59-1.51,11,1.52,0,7.49-.6,11.19-3.58A14,14,0,0,0,71.84,230.6Z"/><path class="cls-8" d="M71.84,230.6h-.2l-16,17.78c0,.08,0,.14,0,.2,1.52,0,7.49-.6,11.19-3.58A14,14,0,0,0,71.84,230.6Z"/><path class="cls-7" d="M29.59,123.06c4.17-1,8.4.09,11,2.79,2.22,2.33,2.48,6.31,2.5,7.29-1,.17-5.19.59-8.11-.94A9.73,9.73,0,0,1,29.59,123.06Z"/><path class="cls-8" d="M29.59,123.06l.14,0,13.33,10v.14c-1,.17-5.19.59-8.11-.94A9.73,9.73,0,0,1,29.59,123.06Z"/><path class="cls-7" d="M30.6,133.34c4.16-1,8.4.09,11,2.79,2.22,2.34,2.48,6.31,2.51,7.29-1,.18-5.19.6-8.12-.94A9.73,9.73,0,0,1,30.6,133.34Z"/><path class="cls-8" d="M30.6,133.34l.14,0,13.32,10a.71.71,0,0,1,0,.14c-1,.18-5.19.6-8.12-.94A9.73,9.73,0,0,1,30.6,133.34Z"/><path class="cls-7" d="M30.74,144.42c4.43-1,8.93.1,11.66,3,2.35,2.48,2.63,6.7,2.66,7.74-1.11.19-5.51.64-8.62-1A10.38,10.38,0,0,1,30.74,144.42Z"/><path class="cls-8" d="M30.76,144.42l.15,0L45.07,155v.15c-1.11.19-5.51.64-8.62-1A10.36,10.36,0,0,1,30.76,144.42Z"/><path class="cls-7" d="M31.45,156.4c4.65-1.07,9.38.1,12.25,3.12,2.48,2.6,2.77,7,2.8,8.14-1.17.19-5.8.66-9.07-1A10.88,10.88,0,0,1,31.45,156.4Z"/><path class="cls-8" d="M31.45,156.4l.16,0L46.49,167.5c0,.06,0,.11,0,.16-1.17.19-5.8.66-9.07-1A10.88,10.88,0,0,1,31.45,156.4Z"/><path class="cls-7" d="M31.58,168c5-1.14,10,.11,13.08,3.33,2.64,2.78,3,7.52,3,8.69-1.24.21-6.18.71-9.67-1.12A11.61,11.61,0,0,1,31.58,168Z"/><path class="cls-8" d="M31.58,168l.17,0L47.64,179.9v.16c-1.24.21-6.18.71-9.67-1.12A11.61,11.61,0,0,1,31.58,168Z"/><path class="cls-7" d="M32.81,180.59c5-1.15,10,.11,13.07,3.33,2.65,2.78,3,7.52,3,8.69-1.24.2-6.19.71-9.67-1.12A11.63,11.63,0,0,1,32.81,180.59Z"/><path class="cls-8" d="M32.81,180.59l.16,0,15.9,11.89v.17c-1.24.2-6.19.71-9.67-1.12A11.63,11.63,0,0,1,32.81,180.59Z"/><path class="cls-7" d="M34,193.13c5-1.14,10,.11,13.08,3.33,2.65,2.78,3,7.52,3,8.69-1.25.21-6.19.71-9.68-1.12A11.62,11.62,0,0,1,34,193.13Z"/><path class="cls-8" d="M34,193.13l.17,0L50.09,205a.92.92,0,0,1,0,.16c-1.25.21-6.19.71-9.68-1.12A11.62,11.62,0,0,1,34,193.13Z"/><path class="cls-7" d="M34,205.85c5.3-1.22,10.69.12,13.95,3.56,2.83,3,3.16,8,3.19,9.27-1.33.22-6.6.76-10.32-1.19A12.4,12.4,0,0,1,34,205.85Z"/><path class="cls-8" d="M34,205.85l.18,0,17,12.69v.17c-1.33.22-6.6.76-10.32-1.19A12.4,12.4,0,0,1,34,205.85Z"/><path class="cls-7" d="M33.09,219.12c6-1.38,12.09.13,15.78,4,3.19,3.36,3.57,9.08,3.6,10.48-1.5.26-7.46.86-11.67-1.34A14,14,0,0,1,33.09,219.12Z"/><path class="cls-8" d="M33.09,219.12l.21-.05,19.17,14.34v.2c-1.5.26-7.46.86-11.67-1.34A14,14,0,0,1,33.09,219.12Z"/><path class="cls-7" d="M34.57,234.25c6-1.38,12.09.13,15.78,4,3.19,3.36,3.57,9.08,3.6,10.49-1.5.25-7.46.85-11.67-1.35A14,14,0,0,1,34.57,234.25Z"/><path class="cls-8" d="M34.57,234.25l.21,0L54,248.55v.2c-1.5.25-7.46.85-11.67-1.35A14,14,0,0,1,34.57,234.25Z"/><path class="cls-4" d="M65.66,357.94a.5.5,0,0,1-.56-.42l-23-235a.49.49,0,0,1,.46-.52.51.51,0,0,1,.56.43l23,235A.49.49,0,0,1,65.66,357.94Z"/><path class="cls-9" d="M127.69,276.27a4.83,4.83,0,0,0-4.68-3.59H42.64A4.89,4.89,0,0,0,38,276.27c-2.65,10-4.13,34.63-4.13,46.31,0,45.07,21.93,68.6,49,68.6A42.32,42.32,0,0,0,115,376.6c10.33-11.51,16.87-29.69,16.87-54C131.83,310.9,130.34,286.31,127.69,276.27Z"/><path class="cls-10" d="M58.49,360.18c-15.27-19.52-18.3-56.85-21.32-80.72-2.15,9.18-3.34,32.67-3.34,43.12,0,45.07,21.93,68.6,49,68.6A42.32,42.32,0,0,0,115,376.6a52.43,52.43,0,0,0,4.85-6.36C99.93,381.62,72.37,377.75,58.49,360.18Z"/><g class="cls-11"><path class="cls-12" d="M20.21,365.82l-.13-2a464.38,464.38,0,0,0,125.46-25.69l.66,1.85A466.69,466.69,0,0,1,20.21,365.82Z"/><path class="cls-12" d="M145.64,335.26c-.91-.17-145.51-74.33-120.41-51.56l1.67-1.84c-25.43-23.06,118.73,50.88,119.21,51Z"/><path class="cls-12" d="M109.56,324.49c-34.32,0-68-6.22-96.11-18.1l1-2.38c38.07,16.08,86.44,21.67,132.7,15.36l.35,2.56A282.31,282.31,0,0,1,109.56,324.49Z"/><path class="cls-12" d="M1.49,385.66l-.18-2c51.43-4.86,101.79-18.55,145.65-39.6l.85,1.77C103.75,367,53.15,380.79,1.49,385.66Z"/><path class="cls-12" d="M136.32,372C90.62,383.32,43.77,387.22,0,383.33l.17-2c47.69,4.24,99.08-.82,148.6-14.64l.53,1.89Q142.84,370.42,136.32,372Z"/></g></g></g></g></svg>